<mxfile host="app.diagrams.net" modified="2024-05-16T12:31:52.790Z" agent="Mozilla/5.0 (X11; Ubuntu; Linux x86_64; rv:124.0) Gecko/20100101 Firefox/124.0" etag="GEY0bpWB4VUWqb2nNWe7" version="24.4.2" type="github">
  <diagram name="第 1 页" id="W3ro6LuAETOLIY_O3qrc">
    <mxGraphModel dx="1912" dy="1074" grid="1" gridSize="10" guides="1" tooltips="1" connect="1" arrows="1" fold="1" page="1" pageScale="1" pageWidth="827" pageHeight="1169" math="0" shadow="0">
      <root>
        <mxCell id="0" />
        <mxCell id="1" parent="0" />
        <mxCell id="ZmIeOV7LGW4xI8rbHgoU-3" value="" style="rounded=1;whiteSpace=wrap;html=1;rotation=90;" vertex="1" parent="1">
          <mxGeometry x="50" y="500" width="700" height="20" as="geometry" />
        </mxCell>
        <mxCell id="ZmIeOV7LGW4xI8rbHgoU-4" value="&lt;font style=&quot;font-size: 14px;&quot;&gt;用户态&lt;/font&gt;" style="text;html=1;align=center;verticalAlign=middle;whiteSpace=wrap;rounded=0;" vertex="1" parent="1">
          <mxGeometry x="430" y="170" width="60" height="30" as="geometry" />
        </mxCell>
        <mxCell id="ZmIeOV7LGW4xI8rbHgoU-5" value="内核态" style="text;html=1;align=center;verticalAlign=middle;whiteSpace=wrap;rounded=0;" vertex="1" parent="1">
          <mxGeometry x="300" y="170" width="60" height="30" as="geometry" />
        </mxCell>
        <mxCell id="ZmIeOV7LGW4xI8rbHgoU-8" value="" style="edgeStyle=orthogonalEdgeStyle;rounded=0;orthogonalLoop=1;jettySize=auto;html=1;" edge="1" parent="1" source="ZmIeOV7LGW4xI8rbHgoU-6" target="ZmIeOV7LGW4xI8rbHgoU-7">
          <mxGeometry relative="1" as="geometry" />
        </mxCell>
        <mxCell id="ZmIeOV7LGW4xI8rbHgoU-6" value="用户代码" style="rounded=1;whiteSpace=wrap;html=1;" vertex="1" parent="1">
          <mxGeometry x="470" y="210" width="120" height="60" as="geometry" />
        </mxCell>
        <mxCell id="ZmIeOV7LGW4xI8rbHgoU-10" value="" style="edgeStyle=orthogonalEdgeStyle;rounded=0;orthogonalLoop=1;jettySize=auto;html=1;" edge="1" parent="1" source="ZmIeOV7LGW4xI8rbHgoU-7" target="ZmIeOV7LGW4xI8rbHgoU-9">
          <mxGeometry relative="1" as="geometry" />
        </mxCell>
        <mxCell id="ZmIeOV7LGW4xI8rbHgoU-7" value="fork()" style="rounded=1;whiteSpace=wrap;html=1;" vertex="1" parent="1">
          <mxGeometry x="470" y="350" width="120" height="60" as="geometry" />
        </mxCell>
        <mxCell id="ZmIeOV7LGW4xI8rbHgoU-23" style="edgeStyle=orthogonalEdgeStyle;rounded=0;orthogonalLoop=1;jettySize=auto;html=1;exitX=0;exitY=0.5;exitDx=0;exitDy=0;entryX=1;entryY=0.5;entryDx=0;entryDy=0;" edge="1" parent="1" source="ZmIeOV7LGW4xI8rbHgoU-9" target="ZmIeOV7LGW4xI8rbHgoU-13">
          <mxGeometry relative="1" as="geometry" />
        </mxCell>
        <mxCell id="ZmIeOV7LGW4xI8rbHgoU-9" value="&lt;div&gt;eax=2&lt;/div&gt;&lt;div&gt;int 0x80&lt;br&gt;&lt;/div&gt;" style="rounded=1;whiteSpace=wrap;html=1;" vertex="1" parent="1">
          <mxGeometry x="470" y="490" width="120" height="60" as="geometry" />
        </mxCell>
        <mxCell id="ZmIeOV7LGW4xI8rbHgoU-15" value="" style="edgeStyle=orthogonalEdgeStyle;rounded=0;orthogonalLoop=1;jettySize=auto;html=1;" edge="1" parent="1" source="ZmIeOV7LGW4xI8rbHgoU-13" target="ZmIeOV7LGW4xI8rbHgoU-14">
          <mxGeometry relative="1" as="geometry" />
        </mxCell>
        <mxCell id="ZmIeOV7LGW4xI8rbHgoU-13" value="中断向量表" style="rounded=0;whiteSpace=wrap;html=1;" vertex="1" parent="1">
          <mxGeometry x="170" y="210" width="120" height="60" as="geometry" />
        </mxCell>
        <mxCell id="ZmIeOV7LGW4xI8rbHgoU-17" value="" style="edgeStyle=orthogonalEdgeStyle;rounded=0;orthogonalLoop=1;jettySize=auto;html=1;" edge="1" parent="1" source="ZmIeOV7LGW4xI8rbHgoU-14" target="ZmIeOV7LGW4xI8rbHgoU-16">
          <mxGeometry relative="1" as="geometry" />
        </mxCell>
        <mxCell id="ZmIeOV7LGW4xI8rbHgoU-14" value="&lt;div&gt;0x80&lt;/div&gt;&lt;div&gt;中断服务程序&lt;/div&gt;&lt;div&gt;（systerm_call）&lt;br&gt;&lt;/div&gt;" style="rounded=0;whiteSpace=wrap;html=1;" vertex="1" parent="1">
          <mxGeometry x="170" y="350" width="120" height="60" as="geometry" />
        </mxCell>
        <mxCell id="ZmIeOV7LGW4xI8rbHgoU-19" value="" style="edgeStyle=orthogonalEdgeStyle;rounded=0;orthogonalLoop=1;jettySize=auto;html=1;" edge="1" parent="1" source="ZmIeOV7LGW4xI8rbHgoU-16" target="ZmIeOV7LGW4xI8rbHgoU-18">
          <mxGeometry relative="1" as="geometry" />
        </mxCell>
        <mxCell id="ZmIeOV7LGW4xI8rbHgoU-16" value="系统调用表" style="rounded=0;whiteSpace=wrap;html=1;" vertex="1" parent="1">
          <mxGeometry x="170" y="490" width="120" height="60" as="geometry" />
        </mxCell>
        <mxCell id="ZmIeOV7LGW4xI8rbHgoU-22" style="edgeStyle=orthogonalEdgeStyle;rounded=0;orthogonalLoop=1;jettySize=auto;html=1;exitX=1;exitY=0.5;exitDx=0;exitDy=0;" edge="1" parent="1" source="ZmIeOV7LGW4xI8rbHgoU-18" target="ZmIeOV7LGW4xI8rbHgoU-20">
          <mxGeometry relative="1" as="geometry" />
        </mxCell>
        <mxCell id="ZmIeOV7LGW4xI8rbHgoU-18" value="系统调用(sys_fork)" style="rounded=0;whiteSpace=wrap;html=1;" vertex="1" parent="1">
          <mxGeometry x="170" y="630" width="120" height="60" as="geometry" />
        </mxCell>
        <mxCell id="ZmIeOV7LGW4xI8rbHgoU-20" value="用户代码" style="rounded=1;whiteSpace=wrap;html=1;" vertex="1" parent="1">
          <mxGeometry x="470" y="630" width="120" height="60" as="geometry" />
        </mxCell>
        <mxCell id="ZmIeOV7LGW4xI8rbHgoU-24" value="查找(0x80)" style="text;html=1;align=center;verticalAlign=middle;whiteSpace=wrap;rounded=0;" vertex="1" parent="1">
          <mxGeometry x="170" y="300" width="60" height="30" as="geometry" />
        </mxCell>
        <mxCell id="ZmIeOV7LGW4xI8rbHgoU-25" value="调用" style="text;html=1;align=center;verticalAlign=middle;whiteSpace=wrap;rounded=0;" vertex="1" parent="1">
          <mxGeometry x="170" y="440" width="60" height="30" as="geometry" />
        </mxCell>
        <mxCell id="ZmIeOV7LGW4xI8rbHgoU-26" value="查表(eax=2)" style="text;html=1;align=center;verticalAlign=middle;whiteSpace=wrap;rounded=0;" vertex="1" parent="1">
          <mxGeometry x="150" y="570" width="90" height="30" as="geometry" />
        </mxCell>
        <mxCell id="ZmIeOV7LGW4xI8rbHgoU-27" value="Return" style="text;html=1;align=center;verticalAlign=middle;whiteSpace=wrap;rounded=0;" vertex="1" parent="1">
          <mxGeometry x="320" y="660" width="60" height="30" as="geometry" />
        </mxCell>
        <mxCell id="ZmIeOV7LGW4xI8rbHgoU-28" value="中断" style="text;html=1;align=center;verticalAlign=middle;whiteSpace=wrap;rounded=0;" vertex="1" parent="1">
          <mxGeometry x="330" y="390" width="60" height="30" as="geometry" />
        </mxCell>
      </root>
    </mxGraphModel>
  </diagram>
</mxfile>
